<svg width="24" height="24" viewBox="0 0 24 24" fill="inherit" xmlns="http://www.w3.org/2000/svg">
<path d="M18.2 6.6H14.6V4.8L12.8 3H9.2L7.4 4.8V6.6H3.8C2.81 6.6 2 7.41 2 8.4V12.9C2 13.575 2.36 14.142 2.9 14.457V17.4C2.9 18.399 3.701 19.2 4.7 19.2H17.3C18.299 19.2 19.1 18.399 19.1 17.4V14.448C19.631 14.133 20 13.557 20 12.9V8.4C20 7.41 19.19 6.6 18.2 6.6ZM9.2 4.8H12.8V6.6H9.2V4.8ZM3.8 8.4H18.2V12.9H13.7V10.2H8.3V12.9H3.8V8.4ZM11.9 13.8H10.1V12H11.9V13.8ZM17.3 17.4H4.7V14.7H8.3V15.6H13.7V14.7H17.3V17.4Z" fill="#D0D1D2"/>
</svg>
