<svg width="13" height="15" viewBox="0 0 13 15" fill="none" xmlns="http://www.w3.org/2000/svg">
<path d="M5.04181 9.60825L4.70453 11.6528L6.47325 10.6875L8.24197 11.6528L7.90397 9.60825L9.33542 8.15925L7.35797 7.86075L6.47325 6L5.58853 7.86075L3.61108 8.15925L5.04181 9.60825Z" fill="#D0D1D2"/>
<path d="M11.5556 1.5H10.1111V0H8.66667V1.5H4.33333V0H2.88889V1.5H1.44444C0.647833 1.5 0 2.17275 0 3V13.5C0 14.3273 0.647833 15 1.44444 15H11.5556C12.3522 15 13 14.3273 13 13.5V3C13 2.17275 12.3522 1.5 11.5556 1.5ZM11.557 13.5H1.44444V4.5H11.5556L11.557 13.5Z" fill="#D0D1D2"/>
</svg>
