<svg width="234" height="234" viewBox="0 0 234 234" fill="none" xmlns="http://www.w3.org/2000/svg">
<circle cx="117" cy="117" r="117" fill="#C4C4C4"/>
<path d="M93.5217 97.5714V91H97.8696V97.5714H104.391V101.952H97.8696V108.524H93.5217V101.952H87V97.5714H93.5217ZM100.043 110.714V104.143H106.565V97.5714H121.783L125.761 101.952H132.652C135.043 101.952 137 103.924 137 106.333V132.619C137 135.029 135.043 137 132.652 137H97.8696C95.4783 137 93.5217 135.029 93.5217 132.619V110.714H100.043ZM115.261 130.429C121.261 130.429 126.13 125.522 126.13 119.476C126.13 113.43 121.261 108.524 115.261 108.524C109.261 108.524 104.391 113.43 104.391 119.476C104.391 125.522 109.261 130.429 115.261 130.429ZM108.304 119.476C108.304 123.353 111.413 126.486 115.261 126.486C119.109 126.486 122.217 123.353 122.217 119.476C122.217 115.599 119.109 112.467 115.261 112.467C111.413 112.467 108.304 115.599 108.304 119.476Z" fill="black"/>
</svg>
