<svg width="50" height="46" viewBox="0 0 50 46" fill="none" xmlns="http://www.w3.org/2000/svg">
<path d="M6.52174 6.57143V0H10.8696V6.57143H17.3913V10.9524H10.8696V17.5238H6.52174V10.9524H0V6.57143H6.52174ZM13.0435 19.7143V13.1429H19.5652V6.57143H34.7826L38.7609 10.9524H45.6522C48.0435 10.9524 50 12.9238 50 15.3333V41.619C50 44.0286 48.0435 46 45.6522 46H10.8696C8.47826 46 6.52174 44.0286 6.52174 41.619V19.7143H13.0435ZM28.2609 39.4286C34.2609 39.4286 39.1304 34.5219 39.1304 28.4762C39.1304 22.4305 34.2609 17.5238 28.2609 17.5238C22.2609 17.5238 17.3913 22.4305 17.3913 28.4762C17.3913 34.5219 22.2609 39.4286 28.2609 39.4286ZM21.3043 28.4762C21.3043 32.3533 24.413 35.4857 28.2609 35.4857C32.1087 35.4857 35.2174 32.3533 35.2174 28.4762C35.2174 24.599 32.1087 21.4667 28.2609 21.4667C24.413 21.4667 21.3043 24.599 21.3043 28.4762Z" fill="black"/>
</svg>
