<svg width="20" height="21" viewBox="0 0 20 21" fill="none" xmlns="http://www.w3.org/2000/svg">
<path d="M12.5 4.11112H5.00001V17.4445H15V6.61112H12.5V4.11112ZM5.00001 2.44446H13.3333L16.6667 5.77779V17.4445C16.6667 17.8865 16.4911 18.3104 16.1785 18.623C15.866 18.9355 15.442 19.1111 15 19.1111H5.00001C4.55798 19.1111 4.13406 18.9355 3.8215 18.623C3.50894 18.3104 3.33334 17.8865 3.33334 17.4445V4.11112C3.33334 3.6691 3.50894 3.24517 3.8215 2.93261C4.13406 2.62005 4.55798 2.44446 5.00001 2.44446ZM6.66668 9.94446H13.3333V11.6111H6.66668V9.94446ZM6.66668 13.2778H13.3333V14.9445H6.66668V13.2778Z" fill="#D0D1D2"/>
</svg>
