<svg width="28" height="28" viewBox="0 0 28 28" fill="none" xmlns="http://www.w3.org/2000/svg">
<path d="M24.7999 12.789C25.3529 13.5124 25.3529 14.4889 24.7999 15.211C23.0581 17.4849 18.8791 22.1667 14.0001 22.1667C9.12109 22.1667 4.94209 17.4849 3.20026 15.211C2.93121 14.8647 2.78516 14.4386 2.78516 14C2.78516 13.5615 2.93121 13.1354 3.20026 12.789C4.94209 10.5152 9.12109 5.83337 14.0001 5.83337C18.8791 5.83337 23.0581 10.5152 24.7999 12.789V12.789Z" stroke="#8C1330" stroke-width="2.5" stroke-linecap="round" stroke-linejoin="round"/>
<path d="M24.7999 12.789C25.3529 13.5124 25.3529 14.4889 24.7999 15.211C23.0581 17.4849 18.8791 22.1667 14.0001 22.1667C9.12109 22.1667 4.94209 17.4849 3.20026 15.211C2.93121 14.8647 2.78516 14.4386 2.78516 14C2.78516 13.5615 2.93121 13.1354 3.20026 12.789C4.94209 10.5152 9.12109 5.83337 14.0001 5.83337C18.8791 5.83337 23.0581 10.5152 24.7999 12.789V12.789Z" stroke="black" stroke-opacity="0.2" stroke-width="2.5" stroke-linecap="round" stroke-linejoin="round"/>
<path d="M14 17.5C15.933 17.5 17.5 15.933 17.5 14C17.5 12.067 15.933 10.5 14 10.5C12.067 10.5 10.5 12.067 10.5 14C10.5 15.933 12.067 17.5 14 17.5Z" stroke="#8C1330" stroke-width="2.5" stroke-linecap="round" stroke-linejoin="round"/>
<path d="M14 17.5C15.933 17.5 17.5 15.933 17.5 14C17.5 12.067 15.933 10.5 14 10.5C12.067 10.5 10.5 12.067 10.5 14C10.5 15.933 12.067 17.5 14 17.5Z" stroke="black" stroke-opacity="0.2" stroke-width="2.5" stroke-linecap="round" stroke-linejoin="round"/>
</svg>
