<svg width="25" height="22" viewBox="0 0 25 22" fill="none" xmlns="http://www.w3.org/2000/svg">
<g clip-path="url(#clip0)">
<path d="M17.4609 14.8203L18.8498 13.4453C19.0668 13.2304 19.4444 13.3808 19.4444 13.6902V19.9378C19.4444 21.0765 18.5113 22.0003 17.3611 22.0003H2.08333C0.93316 22.0003 0 21.0765 0 19.9378V4.81284C0 3.67417 0.93316 2.75034 2.08333 2.75034H13.954C14.2622 2.75034 14.4184 3.11987 14.2014 3.33901L12.8125 4.71401C12.7474 4.77846 12.6606 4.81284 12.5651 4.81284H2.08333V19.9378H17.3611V15.0609C17.3611 14.9707 17.3958 14.8847 17.4609 14.8203ZM24.2578 6.14917L12.8602 17.4328L8.93663 17.8625C7.79948 17.9871 6.8316 17.0375 6.95747 15.9031L7.39149 12.0187L18.7891 0.735104C19.783 -0.24888 21.3889 -0.24888 22.3785 0.735104L24.2535 2.59135C25.2474 3.57534 25.2474 5.16948 24.2578 6.14917ZM19.9696 7.4769L17.4479 4.98042L9.38368 12.9683L9.06684 15.7742L11.901 15.4605L19.9696 7.4769ZM22.7821 4.05229L20.9071 2.19604C20.7292 2.01987 20.4384 2.01987 20.2648 2.19604L18.9236 3.52378L21.4453 6.02026L22.7865 4.69253C22.9601 4.51206 22.9601 4.22846 22.7821 4.05229Z" fill="#8C1330"/>
</g>
<defs>
<clipPath id="clip0">
<rect width="25" height="22" fill="white"/>
</clipPath>
</defs>
</svg>
