<svg width="78" height="78" viewBox="0 0 78 78" fill="none" xmlns="http://www.w3.org/2000/svg">
<path d="M75.558 51.48L64.7845 16.0255V15.4582C65.2155 15.3164 65.6464 15.1745 66.0773 14.8909V14.6073C65.6464 14.7491 65.0718 14.8909 64.6409 15.0327C63.9227 15.1745 63.2044 15.1745 62.3425 15.1745C61.4807 15.1745 60.7624 15.0327 59.9006 14.7491C59.0387 14.6073 58.1768 14.1818 57.3149 13.8982C56.453 13.6145 55.5912 13.1891 54.7293 12.7636C53.8674 12.3382 52.8619 12.0545 52 11.7709C50.9945 11.4873 50.1326 11.2036 49.1271 11.2036H48.6961H48.4088C48.1215 11.2036 47.9779 11.2036 47.6906 11.2036C47.2597 11.2036 46.6851 11.2036 46.2541 11.3455C45.3923 11.3455 44.5304 11.4873 43.6685 11.7709C42.0884 12.1964 40.9392 12.9055 40.221 13.3309C40.221 13.3309 40.0773 13.3309 40.0773 13.4727H39.9337C39.9337 13.4727 39.5028 12.1964 39.9337 11.4873C40.3646 10.7782 42.0884 9.78545 41.8011 7.8C41.5138 6.09818 40.0773 3.82909 38.9282 0C37.9227 3.68727 36.3425 5.95636 36.0552 7.8C35.768 9.78545 37.4917 10.7782 37.9226 11.4873C38.3536 12.1964 37.9226 13.4727 37.9226 13.4727H37.779C37.779 13.4727 37.6354 13.4727 37.6354 13.3309C36.9171 12.9055 35.6243 12.1964 34.1878 11.7709C33.4696 11.4873 32.6077 11.3455 31.7459 11.2036C31.3149 11.2036 30.884 11.0618 30.3094 11.0618C30.0221 11.0618 29.8785 11.0618 29.5912 11.0618H29.3039H28.8729C27.8674 11.2036 26.8619 11.3455 26 11.6291C24.9945 11.9127 24.1326 12.3382 23.2707 12.6218C22.4088 13.0473 21.547 13.4727 20.6851 13.7564C19.8232 14.04 18.9613 14.4655 18.0994 14.6073C17.2376 14.7491 16.3757 14.8909 15.6575 15.0327C14.7956 15.0327 14.0773 15.0327 13.3591 14.8909C12.7845 14.7491 12.3536 14.6073 11.9227 14.4655V14.7491C12.3536 14.8909 12.7845 15.0327 13.2155 15.3164V15.8836L2.44199 51.3382C0.430939 51.7636 0 52.0473 0 52.0473C1.43646 52.0473 1.58011 52.6145 2.44199 53.7491C3.59116 55.3091 4.74033 55.8764 8.18785 55.8764C9.76796 55.8764 13.5028 55.8764 13.5028 55.8764C13.5028 55.8764 17.2376 55.8764 18.8177 55.8764C22.2652 55.8764 23.4144 55.3091 24.5635 53.7491C25.4254 52.7564 25.4254 52.0473 27.0055 52.0473C27.0055 52.0473 26.5746 51.7636 24.5635 51.48L13.7901 16.0255V15.6C14.3646 15.7418 14.9392 15.8836 15.6575 15.8836C16.5193 15.8836 17.3812 15.8836 18.3867 15.7418C19.2486 15.6 20.2541 15.4582 21.116 15.1745C21.9779 14.8909 22.9834 14.6073 23.8453 14.3236C24.7072 14.04 25.5691 13.7564 26.5746 13.6145C27.4365 13.4727 28.2983 13.3309 29.1602 13.3309H29.4475H29.7348C29.8785 13.3309 30.1657 13.3309 30.3094 13.3309C30.7403 13.3309 31.0276 13.4727 31.4586 13.4727C32.1768 13.6145 32.895 13.8982 33.4696 14.1818C34.6188 14.7491 35.4807 15.3164 36.0552 15.7418C36.3425 16.0255 36.4862 16.1673 36.6298 16.3091L36.7735 16.4509V16.5927C36.7735 16.7345 36.7735 16.7345 36.7735 16.8764V17.0182C36.7735 17.16 36.7735 17.16 36.7735 17.3018V17.4436C36.7735 17.5855 36.7735 17.7273 36.7735 17.8691C36.7735 18.0109 36.7735 18.1527 36.7735 18.4364V18.5782C36.7735 18.72 36.7735 18.8618 36.7735 19.0036V19.1455C36.7735 19.2873 36.9171 19.4291 36.9171 19.5709C36.9171 19.5709 36.9171 19.5709 36.9171 19.7127C36.9171 19.8545 37.0608 19.9964 37.0608 20.1382C37.0608 20.1382 37.0608 20.1382 37.0608 20.28C37.0608 20.4218 37.2044 20.5636 37.2044 20.5636C37.2044 20.7055 37.3481 20.7055 37.3481 20.8473L37.4917 20.9891L37.6354 21.1309C37.6354 21.1309 37.779 21.2727 37.9226 21.2727C37.9226 21.2727 37.9227 21.2727 38.0663 21.2727C37.779 21.2727 36.0552 22.2655 36.0552 22.2655L37.3481 23.1164V47.2255L36.3425 47.9345L37.3481 48.6436V49.6364L35.768 50.9127L37.3481 52.1891V52.8982L36.6298 53.3236L37.3481 53.7491V60.2727L36.1989 61.1236L37.3481 61.9745V62.4L36.6298 62.8255L37.3481 63.2509V64.2436C36.7735 64.6691 36.4862 65.2364 36.4862 65.8036C36.4862 66.5127 36.7735 67.08 37.3481 67.3636C36.9171 69.2073 35.337 70.0582 35.337 70.0582L36.3425 70.7673C36.1989 72.1855 29.3039 73.4618 28.1547 74.7382C27.8674 75.0218 27.7238 75.1636 27.7238 75.4473C27.7238 76.8655 32.7514 78 38.9282 78C38.9282 78 38.9282 78 39.0718 78C39.0718 78 39.0718 78 39.2155 78C45.3923 78 50.4199 76.8655 50.4199 75.4473C50.4199 75.1636 50.2762 75.0218 49.9889 74.7382C48.8398 73.4618 41.9448 72.1855 41.8011 70.7673L42.8066 70.0582C42.8066 70.0582 41.3702 69.2073 40.7956 67.3636C41.3702 66.9382 41.6575 66.3709 41.6575 65.8036C41.6575 65.0945 41.3702 64.5273 40.7956 64.2436V63.2509L41.5138 62.8255L40.6519 62.4V61.5491L41.8011 60.6982L40.6519 59.8473V53.3236L41.3702 52.8982L40.6519 52.4727V51.7636L42.232 50.4873L40.6519 49.2109V48.2182L41.6575 47.5091L40.6519 46.8V22.6909L41.9448 21.84C41.9448 21.84 40.221 20.9891 39.9337 20.8473C39.9337 20.8473 39.9337 20.8473 40.0773 20.8473C40.221 20.8473 40.221 20.7055 40.3646 20.7055L40.5083 20.5636L40.6519 20.4218C40.6519 20.28 40.7956 20.28 40.7956 20.1382C40.7956 19.9964 40.9392 19.8545 40.9392 19.8545C40.9392 19.8545 40.9392 19.8545 40.9392 19.7127C40.9392 19.5709 41.0829 19.4291 41.0829 19.2873C41.0829 19.2873 41.0829 19.2873 41.0829 19.1455C41.0829 19.0036 41.2265 18.8618 41.2265 18.72V18.5782C41.2265 18.4364 41.2265 18.2945 41.2265 18.1527V18.0109C41.2265 17.8691 41.2265 17.7273 41.2265 17.4436C41.2265 17.3018 41.2265 17.16 41.2265 17.0182V16.8764C41.2265 16.7345 41.2265 16.7345 41.2265 16.5927V16.4509C41.2265 16.3091 41.2265 16.3091 41.2265 16.1673V16.0255C41.2265 16.0255 41.2265 16.0255 41.3702 15.8836C41.5138 15.7418 41.6575 15.6 41.9448 15.3164C42.5193 14.8909 43.3812 14.1818 44.5304 13.7564C45.105 13.4727 45.8232 13.3309 46.5414 13.0473C46.8287 12.9055 47.2597 12.9055 47.6906 12.9055C47.8343 12.9055 48.1215 12.9055 48.2652 12.9055H48.5525H48.8398C49.7017 12.9055 50.5635 13.0473 51.4254 13.1891C52.2873 13.3309 53.1492 13.6145 54.1547 13.8982C55.0166 14.1818 56.0221 14.4655 56.884 14.7491C57.7459 15.0327 58.7514 15.1745 59.6133 15.3164C60.4751 15.4582 61.4807 15.4582 62.3425 15.4582C63.0608 15.4582 63.6354 15.3164 64.2099 15.1745V15.6L53.4365 51.0545C51.2818 51.3382 50.9945 51.6218 50.9945 51.6218C52.4309 51.6218 52.5746 52.1891 53.4365 53.3236C54.5856 54.8836 55.7348 55.4509 59.1823 55.4509C60.7624 55.4509 64.4972 55.4509 64.4972 55.4509C64.4972 55.4509 68.232 55.4509 69.8121 55.4509C73.2597 55.4509 74.4088 54.8836 75.558 53.3236C76.4199 52.3309 76.4199 51.6218 78 51.6218C78 52.0473 77.7127 51.7636 75.558 51.48ZM23.989 51.48C21.9779 51.1964 18.8177 51.0545 13.7901 51.0545H13.2155C8.18785 51.0545 5.02762 51.1964 3.01657 51.48L13.2155 18.0109L13.5028 17.0182L13.7901 18.0109L23.989 51.48ZM64.7845 51.0545H64.2099C59.1823 51.0545 56.0221 51.1964 54.011 51.48L64.2099 18.0109L64.4972 17.0182L64.7845 18.0109L74.9834 51.48C72.9724 51.1964 69.8122 51.0545 64.7845 51.0545Z" fill="white"/>
</svg>
