<svg width="262" height="150" viewBox="0 0 262 150" fill="none" xmlns="http://www.w3.org/2000/svg">
<path d="M1.25 118C0.95 118 0.75 117.95 0.65 117.85C0.55 117.733 0.5 117.583 0.5 117.4C0.5 117.183 0.566667 117.008 0.7 116.875C0.85 116.742 1.11667 116.675 1.5 116.675H3.75V101.6H1.5C1.11667 101.6 0.85 101.533 0.7 101.4C0.566667 101.267 0.5 101.092 0.5 100.875C0.5 100.692 0.55 100.55 0.65 100.45C0.75 100.333 0.95 100.275 1.25 100.275H8.95C9.25 100.275 9.45 100.333 9.55 100.45C9.65 100.55 9.7 100.692 9.7 100.875C9.7 101.092 9.625 101.267 9.475 101.4C9.34167 101.533 9.08333 101.6 8.7 101.6H6.45V116.675H8.7C9.08333 116.675 9.34167 116.742 9.475 116.875C9.625 117.008 9.7 117.183 9.7 117.4C9.7 117.583 9.65 117.733 9.55 117.85C9.45 117.95 9.25 118 8.95 118H1.25ZM32.2551 104.825C31.7717 104.825 31.4051 104.708 31.1551 104.475C30.9217 104.225 30.8051 103.825 30.8051 103.275V102C30.7384 101.983 30.5967 101.942 30.3801 101.875C29.6134 101.658 28.7717 101.55 27.8551 101.55C27.1217 101.55 26.5051 101.708 26.0051 102.025C25.5051 102.325 25.1301 102.717 24.8801 103.2C24.6467 103.667 24.5301 104.15 24.5301 104.65C24.5301 105.217 24.6301 105.683 24.8301 106.05C25.0467 106.417 25.3884 106.733 25.8551 107C26.3217 107.267 27.0051 107.567 27.9051 107.9C29.6884 108.533 30.9967 109.05 31.8301 109.45C32.6634 109.85 33.3134 110.342 33.7801 110.925C34.2467 111.492 34.4801 112.233 34.4801 113.15C34.4801 114.083 34.2051 114.917 33.6551 115.65C33.1217 116.383 32.3217 116.958 31.2551 117.375C30.2051 117.792 28.9467 118 27.4801 118C26.7301 118 25.9051 117.925 25.0051 117.775C24.1217 117.608 23.3801 117.408 22.7801 117.175C22.3967 117.008 22.1384 116.858 22.0051 116.725C21.8717 116.575 21.8051 116.325 21.8051 115.975V114.475C21.8051 113.675 22.1634 113.275 22.8801 113.275C23.3634 113.275 23.7217 113.4 23.9551 113.65C24.2051 113.883 24.3301 114.283 24.3301 114.85V116.2C25.3801 116.55 26.3967 116.725 27.3801 116.725C28.2801 116.725 29.0551 116.567 29.7051 116.25C30.3551 115.933 30.8467 115.525 31.1801 115.025C31.5134 114.525 31.6801 113.992 31.6801 113.425C31.6801 112.875 31.5301 112.408 31.2301 112.025C30.9467 111.642 30.5134 111.3 29.9301 111C29.3467 110.7 28.5301 110.358 27.4801 109.975C26.0634 109.442 24.9717 108.992 24.2051 108.625C23.4551 108.242 22.8551 107.75 22.4051 107.15C21.9551 106.533 21.7301 105.75 21.7301 104.8C21.7301 103.433 22.2551 102.342 23.3051 101.525C24.3551 100.692 25.8134 100.275 27.6801 100.275C28.5467 100.275 29.3384 100.342 30.0551 100.475C30.7717 100.592 31.5217 100.767 32.3051 101C32.7051 101.133 32.9717 101.275 33.1051 101.425C33.2551 101.575 33.3301 101.825 33.3301 102.175V103.625C33.3301 104.425 32.9717 104.825 32.2551 104.825ZM62.5516 109.15C62.5516 110.4 62.3599 111.683 61.9766 113C61.6099 114.317 60.8599 115.483 59.7266 116.5C58.5932 117.5 56.9849 118 54.9016 118C52.8182 118 51.2099 117.5 50.0766 116.5C48.9599 115.483 48.2182 114.317 47.8516 113C47.4849 111.683 47.3016 110.4 47.3016 109.15C47.3016 107.9 47.4849 106.617 47.8516 105.3C48.2182 103.983 48.9599 102.817 50.0766 101.8C51.2099 100.783 52.8182 100.275 54.9016 100.275C56.9849 100.275 58.5932 100.783 59.7266 101.8C60.8599 102.817 61.6099 103.992 61.9766 105.325C62.3599 106.642 62.5516 107.917 62.5516 109.15ZM59.7266 109.15C59.7266 107.217 59.4016 105.467 58.7516 103.9C58.1016 102.333 56.8182 101.55 54.9016 101.55C53.0182 101.55 51.7516 102.333 51.1016 103.9C50.4516 105.467 50.1266 107.217 50.1266 109.15C50.1266 111.067 50.4516 112.808 51.1016 114.375C51.7516 115.942 53.0182 116.725 54.9016 116.725C56.8182 116.725 58.1016 115.95 58.7516 114.4C59.4016 112.833 59.7266 111.083 59.7266 109.15ZM86.1971 113.325C86.5637 113.325 86.8304 113.425 86.9971 113.625C87.1804 113.825 87.2721 114.142 87.2721 114.575V117.2C87.2721 117.483 87.1471 117.692 86.8971 117.825C86.6471 117.942 86.2721 118 85.7721 118H77.5221C77.1387 118 76.8471 117.9 76.6471 117.7C76.4637 117.5 76.3721 117.183 76.3721 116.75V101.525C76.3721 101.075 76.4554 100.758 76.6221 100.575C76.7887 100.375 77.0721 100.275 77.4721 100.275C77.9887 100.275 78.3804 100.442 78.6471 100.775C78.9304 101.092 79.0721 101.567 79.0721 102.2V116.675H84.7471V114.95C84.7471 114.367 84.8637 113.95 85.0971 113.7C85.3471 113.45 85.7137 113.325 86.1971 113.325ZM100.729 116.675C100.529 117.208 100.296 117.567 100.029 117.75C99.7793 117.917 99.5043 118 99.2043 118C98.971 118 98.796 117.942 98.6793 117.825C98.5793 117.692 98.5293 117.525 98.5293 117.325C98.5293 117.125 98.571 116.917 98.6543 116.7L104.529 100.875C104.596 100.692 104.754 100.55 105.004 100.45C105.271 100.333 105.571 100.275 105.904 100.275C106.271 100.275 106.596 100.333 106.879 100.45C107.179 100.567 107.363 100.733 107.429 100.95L113.154 116.8C113.188 116.967 113.204 117.092 113.204 117.175C113.204 117.408 113.121 117.608 112.954 117.775C112.804 117.925 112.563 118 112.229 118C111.879 118 111.521 117.908 111.154 117.725C110.804 117.542 110.538 117.192 110.354 116.675L109.029 113.25H102.004L100.729 116.675ZM105.629 103.225H105.479L102.404 111.95H108.654L105.629 103.225ZM143.579 101.525C143.579 101.092 143.671 100.775 143.854 100.575C144.054 100.375 144.346 100.275 144.729 100.275H149.854C153.554 100.275 155.404 101.758 155.404 104.725C155.404 105.558 155.146 106.342 154.629 107.075C154.129 107.792 153.446 108.258 152.579 108.475V108.6C153.846 108.817 154.787 109.3 155.404 110.05C156.021 110.783 156.329 111.667 156.329 112.7C156.329 114.717 155.671 116.108 154.354 116.875C153.054 117.625 151.596 118 149.979 118H144.729C144.346 118 144.054 117.9 143.854 117.7C143.671 117.5 143.579 117.183 143.579 116.75V101.525ZM146.279 108.05H149.154C149.687 108.05 150.212 107.942 150.729 107.725C151.262 107.492 151.704 107.125 152.054 106.625C152.404 106.108 152.579 105.45 152.579 104.65C152.579 103.567 152.204 102.792 151.454 102.325C150.704 101.842 149.871 101.6 148.954 101.6H146.279V108.05ZM146.279 116.675H149.629C150.612 116.675 151.504 116.392 152.304 115.825C153.104 115.242 153.504 114.283 153.504 112.95C153.504 112.117 153.296 111.433 152.879 110.9C152.462 110.367 151.937 109.983 151.304 109.75C150.671 109.5 150.029 109.375 149.379 109.375H146.279V116.675ZM170.327 101.525C170.327 101.075 170.41 100.758 170.577 100.575C170.744 100.375 171.027 100.275 171.427 100.275H176.152C178.069 100.275 179.602 100.633 180.752 101.35C181.902 102.05 182.477 103.3 182.477 105.1C182.477 105.917 182.26 106.667 181.827 107.35C181.41 108.033 180.86 108.592 180.177 109.025C179.51 109.458 178.819 109.733 178.102 109.85L182.252 116.525C182.402 116.742 182.477 116.958 182.477 117.175C182.477 117.425 182.369 117.625 182.152 117.775C181.935 117.925 181.619 118 181.202 118C180.869 118 180.552 117.925 180.252 117.775C179.952 117.625 179.702 117.383 179.502 117.05L175.302 110.025H173.027V116.375C173.027 116.958 172.902 117.375 172.652 117.625C172.402 117.875 172.01 118 171.477 118C171.094 118 170.802 117.9 170.602 117.7C170.419 117.5 170.327 117.183 170.327 116.75V101.525ZM173.027 108.7H175.702C176.735 108.7 177.652 108.4 178.452 107.8C179.252 107.183 179.652 106.233 179.652 104.95C179.652 103.583 179.285 102.683 178.552 102.25C177.819 101.817 176.935 101.6 175.902 101.6H173.027V108.7ZM198.917 112.525C198.917 113.875 199.308 114.933 200.092 115.7C200.875 116.467 201.958 116.85 203.342 116.85C204.625 116.85 205.642 116.433 206.392 115.6C207.158 114.767 207.542 113.708 207.542 112.425V101.675C207.542 101.192 207.642 100.842 207.842 100.625C208.058 100.392 208.3 100.275 208.567 100.275C208.833 100.275 209.058 100.367 209.242 100.55C209.425 100.733 209.517 101.017 209.517 101.4V111.65C209.517 112.65 209.342 113.658 208.992 114.675C208.642 115.675 207.967 116.542 206.967 117.275C205.983 118.008 204.608 118.375 202.842 118.375C200.208 118.375 198.442 117.7 197.542 116.35C196.658 115 196.217 113.458 196.217 111.725V101.525C196.217 101.075 196.3 100.758 196.467 100.575C196.633 100.375 196.917 100.275 197.317 100.275C197.833 100.275 198.225 100.442 198.492 100.775C198.775 101.092 198.917 101.567 198.917 102.2V112.525ZM234.411 104.775C233.928 104.775 233.561 104.65 233.311 104.4C233.078 104.15 232.961 103.733 232.961 103.15V101.75C232.344 101.617 231.736 101.55 231.136 101.55C229.553 101.55 228.294 102.217 227.361 103.55C226.444 104.867 225.986 106.8 225.986 109.35C225.986 112.067 226.436 113.975 227.336 115.075C228.236 116.158 229.561 116.7 231.311 116.7C232.344 116.7 233.436 116.458 234.586 115.975L235.061 115.775C235.161 115.742 235.228 115.725 235.261 115.725C235.428 115.725 235.569 115.808 235.686 115.975C235.803 116.125 235.861 116.292 235.861 116.475C235.861 116.708 235.753 116.875 235.536 116.975L235.111 117.15C234.428 117.433 233.736 117.65 233.036 117.8C232.353 117.933 231.544 118 230.611 118C228.078 118 226.203 117.25 224.986 115.75C223.769 114.233 223.161 112.083 223.161 109.3C223.161 107.283 223.486 105.6 224.136 104.25C224.803 102.9 225.711 101.9 226.861 101.25C228.011 100.6 229.328 100.275 230.811 100.275C232.144 100.275 233.361 100.45 234.461 100.8C234.861 100.933 235.128 101.083 235.261 101.25C235.411 101.4 235.486 101.658 235.486 102.025V103.525C235.486 103.958 235.394 104.275 235.211 104.475C235.044 104.675 234.778 104.775 234.411 104.775ZM258.937 104.625C258.454 104.625 258.087 104.5 257.837 104.25C257.604 104 257.487 103.583 257.487 103V101.6H251.562V108.15H256.812C257.029 108.15 257.196 108.225 257.312 108.375C257.446 108.508 257.512 108.667 257.512 108.85C257.512 109.017 257.437 109.175 257.287 109.325C257.137 109.458 256.979 109.525 256.812 109.525H251.562V116.675H257.862V115.275C257.862 114.692 257.979 114.275 258.212 114.025C258.462 113.775 258.829 113.65 259.312 113.65C259.679 113.65 259.946 113.75 260.112 113.95C260.296 114.15 260.387 114.467 260.387 114.9V117.075C260.387 117.425 260.262 117.667 260.012 117.8C259.779 117.933 259.404 118 258.887 118H250.012C249.629 118 249.337 117.9 249.137 117.7C248.954 117.5 248.862 117.183 248.862 116.75V101.525C248.862 101.092 248.954 100.775 249.137 100.575C249.337 100.375 249.629 100.275 250.012 100.275H258.512C259.029 100.275 259.404 100.342 259.637 100.475C259.887 100.608 260.012 100.85 260.012 101.2V103.375C260.012 103.808 259.921 104.125 259.737 104.325C259.571 104.525 259.304 104.625 258.937 104.625Z" fill="white"/>
<path d="M79.854 145.046C79.71 145.43 79.542 145.688 79.35 145.82C79.17 145.94 78.972 146 78.756 146C78.588 146 78.462 145.958 78.378 145.874C78.306 145.778 78.27 145.658 78.27 145.514C78.27 145.37 78.3 145.22 78.36 145.064L82.59 133.67C82.638 133.538 82.752 133.436 82.932 133.364C83.124 133.28 83.34 133.238 83.58 133.238C83.844 133.238 84.078 133.28 84.282 133.364C84.498 133.448 84.63 133.568 84.678 133.724L88.8 145.136C88.824 145.256 88.836 145.346 88.836 145.406C88.836 145.574 88.776 145.718 88.656 145.838C88.548 145.946 88.374 146 88.134 146C87.882 146 87.624 145.934 87.36 145.802C87.108 145.67 86.916 145.418 86.784 145.046L85.83 142.58H80.772L79.854 145.046ZM83.382 135.362H83.274L81.06 141.644H85.56L83.382 135.362ZM96.0574 138.62C96.6694 137.516 97.6054 136.964 98.8654 136.964C99.7894 136.964 100.533 137.258 101.097 137.846C101.661 138.434 101.943 139.496 101.943 141.032C101.943 142.64 101.565 143.87 100.809 144.722C100.053 145.574 99.0034 146 97.6594 146C96.8314 146 96.0574 145.862 95.3374 145.586C94.9654 145.454 94.6714 145.274 94.4554 145.046C94.2514 144.818 94.1494 144.476 94.1494 144.02V133.166C94.1494 132.878 94.1974 132.668 94.2934 132.536C94.4014 132.392 94.5934 132.32 94.8694 132.32C95.2774 132.32 95.5714 132.434 95.7514 132.662C95.9314 132.89 96.0214 133.268 96.0214 133.796V138.62H96.0574ZM96.0034 144.326C96.0034 144.59 96.1474 144.818 96.4354 145.01C96.7354 145.19 97.1434 145.28 97.6594 145.28C99.2194 145.28 99.9994 143.912 99.9994 141.176C99.9994 140.012 99.8374 139.22 99.5134 138.8C99.1894 138.38 98.7334 138.17 98.1454 138.17C97.8454 138.17 97.5274 138.272 97.1914 138.476C96.8554 138.668 96.5734 138.92 96.3454 139.232C96.1174 139.544 96.0034 139.868 96.0034 140.204V144.326ZM111.527 146C110.219 146 109.205 145.622 108.485 144.866C107.765 144.11 107.405 142.982 107.405 141.482C107.405 139.958 107.771 138.824 108.503 138.08C109.235 137.336 110.243 136.964 111.527 136.964C112.811 136.964 113.819 137.336 114.551 138.08C115.283 138.824 115.649 139.958 115.649 141.482C115.649 142.982 115.289 144.11 114.569 144.866C113.849 145.622 112.835 146 111.527 146ZM111.527 145.28C112.235 145.28 112.775 145.01 113.147 144.47C113.519 143.918 113.705 142.922 113.705 141.482C113.705 140.066 113.513 139.082 113.129 138.53C112.745 137.966 112.211 137.684 111.527 137.684C110.855 137.684 110.321 137.966 109.925 138.53C109.541 139.094 109.349 140.078 109.349 141.482C109.349 142.91 109.535 143.9 109.907 144.452C110.279 145.004 110.819 145.28 111.527 145.28ZM124.876 149.24C125.416 149.24 125.896 149.132 126.316 148.916C126.748 148.712 127.084 148.442 127.324 148.106C127.564 147.77 127.684 147.428 127.684 147.08C127.684 146.492 127.372 146.078 126.748 145.838C126.136 145.586 125.308 145.424 124.264 145.352C123.232 145.28 122.44 145.118 121.888 144.866C121.348 144.602 121.078 144.212 121.078 143.696C121.078 143.384 121.192 143.138 121.42 142.958C121.648 142.778 121.984 142.586 122.428 142.382C122.836 142.214 123.124 142.07 123.292 141.95V141.896C122.848 141.716 122.512 141.428 122.284 141.032C122.068 140.636 121.96 140.228 121.96 139.808C121.96 138.848 122.308 138.134 123.004 137.666C123.7 137.198 124.558 136.964 125.578 136.964C125.938 136.964 126.334 137.012 126.766 137.108C127.21 137.192 127.564 137.33 127.828 137.522C127.888 137.498 127.93 137.45 127.954 137.378C127.978 137.294 127.996 137.222 128.008 137.162C128.02 137.102 128.032 137.054 128.044 137.018C128.08 136.73 128.152 136.508 128.26 136.352C128.368 136.184 128.584 136.1 128.908 136.1C129.076 136.1 129.22 136.178 129.34 136.334C129.472 136.478 129.538 136.652 129.538 136.856C129.538 137.24 129.196 137.636 128.512 138.044C128.716 138.26 128.878 138.518 128.998 138.818C129.118 139.106 129.178 139.4 129.178 139.7C129.178 140.24 129.01 140.714 128.674 141.122C128.35 141.53 127.912 141.848 127.36 142.076C126.82 142.304 126.232 142.418 125.596 142.418C124.972 142.418 124.492 142.364 124.156 142.256C124 142.376 123.85 142.478 123.706 142.562C123.478 142.706 123.322 142.82 123.238 142.904C123.166 142.988 123.13 143.108 123.13 143.264C123.13 143.456 123.268 143.618 123.544 143.75C123.832 143.87 124.36 143.948 125.128 143.984C126.604 144.056 127.708 144.326 128.44 144.794C129.172 145.262 129.538 145.85 129.538 146.558C129.538 147.206 129.328 147.788 128.908 148.304C128.5 148.82 127.906 149.222 127.126 149.51C126.346 149.81 125.434 149.96 124.39 149.96C123.406 149.96 122.614 149.75 122.014 149.33C121.426 148.922 121.132 148.394 121.132 147.746C121.132 147.386 121.228 147.068 121.42 146.792C121.612 146.516 121.834 146.3 122.086 146.144C122.338 145.988 122.548 145.91 122.716 145.91C122.848 145.91 122.95 145.946 123.022 146.018C123.094 146.09 123.13 146.174 123.13 146.27C123.13 146.33 123.07 146.432 122.95 146.576C122.83 146.72 122.728 146.864 122.644 147.008C122.572 147.164 122.536 147.368 122.536 147.62C122.536 148.1 122.758 148.49 123.202 148.79C123.658 149.09 124.216 149.24 124.876 149.24ZM127.324 139.664C127.324 139.076 127.168 138.602 126.856 138.242C126.556 137.87 126.13 137.684 125.578 137.684C125.038 137.684 124.606 137.87 124.282 138.242C123.97 138.602 123.814 139.1 123.814 139.736C123.814 140.324 123.97 140.798 124.282 141.158C124.594 141.518 125.026 141.698 125.578 141.698C126.106 141.698 126.526 141.512 126.838 141.14C127.162 140.768 127.324 140.276 127.324 139.664ZM140.632 144.29C140.236 144.878 139.78 145.31 139.264 145.586C138.76 145.862 138.16 146 137.464 146C136.576 146 135.898 145.784 135.43 145.352C134.974 144.908 134.746 144.314 134.746 143.57C134.746 142.658 135.082 141.908 135.754 141.32C136.438 140.72 137.614 140.42 139.282 140.42H140.596V139.916C140.596 139.1 140.452 138.524 140.164 138.188C139.888 137.852 139.432 137.684 138.796 137.684C138.196 137.684 137.668 137.936 137.212 138.44C136.828 138.86 136.462 139.07 136.114 139.07C135.91 139.07 135.754 139.016 135.646 138.908C135.538 138.788 135.484 138.638 135.484 138.458C135.484 138.23 135.568 138.038 135.736 137.882C135.904 137.726 136.15 137.582 136.474 137.45C136.858 137.294 137.29 137.174 137.77 137.09C138.262 137.006 138.724 136.964 139.156 136.964C140.02 136.964 140.692 137.084 141.172 137.324C141.664 137.564 142.006 137.918 142.198 138.386C142.39 138.854 142.486 139.466 142.486 140.222V145.154C142.486 145.442 142.438 145.658 142.342 145.802C142.246 145.934 142.06 146 141.784 146C141.388 146 141.106 145.868 140.938 145.604C140.77 145.328 140.686 144.896 140.686 144.308L140.632 144.29ZM139.57 141.176C137.602 141.176 136.618 141.89 136.618 143.318C136.618 144.302 137.14 144.794 138.184 144.794C138.508 144.794 138.856 144.716 139.228 144.56C139.612 144.392 139.936 144.152 140.2 143.84C140.476 143.516 140.614 143.132 140.614 142.688V141.176H139.57ZM152.582 136.964C153.17 136.964 153.716 137.066 154.22 137.27V133.796C154.22 133.268 154.31 132.89 154.49 132.662C154.67 132.434 154.964 132.32 155.372 132.32C155.648 132.32 155.834 132.392 155.93 132.536C156.038 132.668 156.092 132.878 156.092 133.166V145.154C156.092 145.442 156.044 145.658 155.948 145.802C155.852 145.934 155.666 146 155.39 146C154.658 146 154.292 145.376 154.292 144.128L154.238 144.11C153.89 144.686 153.494 145.148 153.05 145.496C152.606 145.832 152.048 146 151.376 146C150.5 146 149.768 145.676 149.18 145.028C148.592 144.368 148.298 143.318 148.298 141.878C148.298 140.198 148.67 138.962 149.414 138.17C150.158 137.366 151.214 136.964 152.582 136.964ZM150.242 141.734C150.242 142.814 150.41 143.594 150.746 144.074C151.094 144.554 151.544 144.794 152.096 144.794C152.42 144.794 152.75 144.68 153.086 144.452C153.422 144.212 153.698 143.918 153.914 143.57C154.13 143.21 154.238 142.856 154.238 142.508V138.746C154.238 138.482 154.088 138.242 153.788 138.026C153.488 137.798 153.086 137.684 152.582 137.684C151.814 137.684 151.232 137.984 150.836 138.584C150.44 139.172 150.242 140.222 150.242 141.734ZM166.163 146C164.855 146 163.841 145.622 163.121 144.866C162.401 144.11 162.041 142.982 162.041 141.482C162.041 139.958 162.407 138.824 163.139 138.08C163.871 137.336 164.879 136.964 166.163 136.964C167.447 136.964 168.455 137.336 169.187 138.08C169.919 138.824 170.285 139.958 170.285 141.482C170.285 142.982 169.925 144.11 169.205 144.866C168.485 145.622 167.471 146 166.163 146ZM166.163 145.28C166.871 145.28 167.411 145.01 167.783 144.47C168.155 143.918 168.341 142.922 168.341 141.482C168.341 140.066 168.149 139.082 167.765 138.53C167.381 137.966 166.847 137.684 166.163 137.684C165.491 137.684 164.957 137.966 164.561 138.53C164.177 139.094 163.985 140.078 163.985 141.482C163.985 142.91 164.171 143.9 164.543 144.452C164.915 145.004 165.455 145.28 166.163 145.28ZM181.06 143.804C181.06 143.468 180.958 143.192 180.754 142.976C180.562 142.748 180.31 142.568 179.998 142.436C179.698 142.292 179.266 142.124 178.702 141.932C178.018 141.704 177.478 141.494 177.082 141.302C176.698 141.11 176.386 140.864 176.146 140.564C175.906 140.252 175.786 139.85 175.786 139.358C175.786 138.734 175.972 138.248 176.344 137.9C176.728 137.54 177.172 137.294 177.676 137.162C178.18 137.03 178.66 136.964 179.116 136.964C180.112 136.964 180.892 137.114 181.456 137.414C181.732 137.558 181.96 137.732 182.14 137.936C182.32 138.14 182.41 138.368 182.41 138.62C182.41 138.812 182.338 138.968 182.194 139.088C182.062 139.208 181.9 139.268 181.708 139.268C181.456 139.268 181.252 139.214 181.096 139.106C180.952 138.998 180.832 138.836 180.736 138.62C180.604 138.332 180.412 138.104 180.16 137.936C179.908 137.768 179.566 137.684 179.134 137.684C178.69 137.684 178.318 137.798 178.018 138.026C177.73 138.242 177.586 138.572 177.586 139.016C177.586 139.316 177.676 139.574 177.856 139.79C178.036 139.994 178.27 140.162 178.558 140.294C178.846 140.426 179.248 140.582 179.764 140.762C180.436 141.002 180.976 141.218 181.384 141.41C181.804 141.602 182.158 141.854 182.446 142.166C182.746 142.478 182.896 142.862 182.896 143.318C182.896 144.122 182.548 144.77 181.852 145.262C181.168 145.754 180.274 146 179.17 146C178.654 146 178.162 145.946 177.694 145.838C177.238 145.73 176.854 145.592 176.542 145.424C175.954 145.124 175.66 144.728 175.66 144.236C175.66 144.044 175.732 143.888 175.876 143.768C176.032 143.636 176.194 143.57 176.362 143.57C176.83 143.57 177.16 143.786 177.352 144.218C177.508 144.53 177.718 144.788 177.982 144.992C178.258 145.184 178.666 145.28 179.206 145.28C179.734 145.28 180.172 145.16 180.52 144.92C180.88 144.668 181.06 144.296 181.06 143.804Z" fill="white"/>
<path d="M164.558 51.48L153.785 16.0255V15.4582C154.215 15.3164 154.646 15.1745 155.077 14.8909V14.6073C154.646 14.7491 154.072 14.8909 153.641 15.0327C152.923 15.1745 152.204 15.1745 151.343 15.1745C150.481 15.1745 149.762 15.0327 148.901 14.7491C148.039 14.6073 147.177 14.1818 146.315 13.8982C145.453 13.6145 144.591 13.1891 143.729 12.7636C142.867 12.3382 141.862 12.0545 141 11.7709C139.994 11.4873 139.133 11.2036 138.127 11.2036H137.696H137.409C137.122 11.2036 136.978 11.2036 136.691 11.2036C136.26 11.2036 135.685 11.2036 135.254 11.3455C134.392 11.3455 133.53 11.4873 132.669 11.7709C131.088 12.1964 129.939 12.9055 129.221 13.3309C129.221 13.3309 129.077 13.3309 129.077 13.4727H128.934C128.934 13.4727 128.503 12.1964 128.934 11.4873C129.365 10.7782 131.088 9.78545 130.801 7.8C130.514 6.09818 129.077 3.82909 127.928 0C126.923 3.68727 125.343 5.95636 125.055 7.8C124.768 9.78545 126.492 10.7782 126.923 11.4873C127.354 12.1964 126.923 13.4727 126.923 13.4727H126.779C126.779 13.4727 126.635 13.4727 126.635 13.3309C125.917 12.9055 124.624 12.1964 123.188 11.7709C122.47 11.4873 121.608 11.3455 120.746 11.2036C120.315 11.2036 119.884 11.0618 119.309 11.0618C119.022 11.0618 118.878 11.0618 118.591 11.0618H118.304H117.873C116.867 11.2036 115.862 11.3455 115 11.6291C113.994 11.9127 113.133 12.3382 112.271 12.6218C111.409 13.0473 110.547 13.4727 109.685 13.7564C108.823 14.04 107.961 14.4655 107.099 14.6073C106.238 14.7491 105.376 14.8909 104.657 15.0327C103.796 15.0327 103.077 15.0327 102.359 14.8909C101.785 14.7491 101.354 14.6073 100.923 14.4655V14.7491C101.354 14.8909 101.785 15.0327 102.215 15.3164V15.8836L91.442 51.3382C89.4309 51.7636 89 52.0473 89 52.0473C90.4365 52.0473 90.5801 52.6145 91.442 53.7491C92.5912 55.3091 93.7403 55.8764 97.1878 55.8764C98.768 55.8764 102.503 55.8764 102.503 55.8764C102.503 55.8764 106.238 55.8764 107.818 55.8764C111.265 55.8764 112.414 55.3091 113.564 53.7491C114.425 52.7564 114.425 52.0473 116.006 52.0473C116.006 52.0473 115.575 51.7636 113.564 51.48L102.79 16.0255V15.6C103.365 15.7418 103.939 15.8836 104.657 15.8836C105.519 15.8836 106.381 15.8836 107.387 15.7418C108.249 15.6 109.254 15.4582 110.116 15.1745C110.978 14.8909 111.983 14.6073 112.845 14.3236C113.707 14.04 114.569 13.7564 115.575 13.6145C116.436 13.4727 117.298 13.3309 118.16 13.3309H118.448H118.735C118.878 13.3309 119.166 13.3309 119.309 13.3309C119.74 13.3309 120.028 13.4727 120.459 13.4727C121.177 13.6145 121.895 13.8982 122.47 14.1818C123.619 14.7491 124.481 15.3164 125.055 15.7418C125.343 16.0255 125.486 16.1673 125.63 16.3091L125.773 16.4509V16.5927C125.773 16.7345 125.773 16.7345 125.773 16.8764V17.0182C125.773 17.16 125.773 17.16 125.773 17.3018V17.4436C125.773 17.5855 125.773 17.7273 125.773 17.8691C125.773 18.0109 125.773 18.1527 125.773 18.4364V18.5782C125.773 18.72 125.773 18.8618 125.773 19.0036V19.1455C125.773 19.2873 125.917 19.4291 125.917 19.5709C125.917 19.5709 125.917 19.5709 125.917 19.7127C125.917 19.8545 126.061 19.9964 126.061 20.1382C126.061 20.1382 126.061 20.1382 126.061 20.28C126.061 20.4218 126.204 20.5636 126.204 20.5636C126.204 20.7055 126.348 20.7055 126.348 20.8473L126.492 20.9891L126.635 21.1309C126.635 21.1309 126.779 21.2727 126.923 21.2727C126.923 21.2727 126.923 21.2727 127.066 21.2727C126.779 21.2727 125.055 22.2655 125.055 22.2655L126.348 23.1164V47.2255L125.343 47.9345L126.348 48.6436V49.6364L124.768 50.9127L126.348 52.1891V52.8982L125.63 53.3236L126.348 53.7491V60.2727L125.199 61.1236L126.348 61.9745V62.4L125.63 62.8255L126.348 63.2509V64.2436C125.773 64.6691 125.486 65.2364 125.486 65.8036C125.486 66.5127 125.773 67.08 126.348 67.3636C125.917 69.2073 124.337 70.0582 124.337 70.0582L125.343 70.7673C125.199 72.1855 118.304 73.4618 117.155 74.7382C116.867 75.0218 116.724 75.1636 116.724 75.4473C116.724 76.8655 121.751 78 127.928 78C127.928 78 127.928 78 128.072 78C128.072 78 128.072 78 128.215 78C134.392 78 139.42 76.8655 139.42 75.4473C139.42 75.1636 139.276 75.0218 138.989 74.7382C137.84 73.4618 130.945 72.1855 130.801 70.7673L131.807 70.0582C131.807 70.0582 130.37 69.2073 129.796 67.3636C130.37 66.9382 130.657 66.3709 130.657 65.8036C130.657 65.0945 130.37 64.5273 129.796 64.2436V63.2509L130.514 62.8255L129.652 62.4V61.5491L130.801 60.6982L129.652 59.8473V53.3236L130.37 52.8982L129.652 52.4727V51.7636L131.232 50.4873L129.652 49.2109V48.2182L130.657 47.5091L129.652 46.8V22.6909L130.945 21.84C130.945 21.84 129.221 20.9891 128.934 20.8473C128.934 20.8473 128.934 20.8473 129.077 20.8473C129.221 20.8473 129.221 20.7055 129.365 20.7055L129.508 20.5636L129.652 20.4218C129.652 20.28 129.796 20.28 129.796 20.1382C129.796 19.9964 129.939 19.8545 129.939 19.8545C129.939 19.8545 129.939 19.8545 129.939 19.7127C129.939 19.5709 130.083 19.4291 130.083 19.2873C130.083 19.2873 130.083 19.2873 130.083 19.1455C130.083 19.0036 130.227 18.8618 130.227 18.72V18.5782C130.227 18.4364 130.227 18.2945 130.227 18.1527V18.0109C130.227 17.8691 130.227 17.7273 130.227 17.4436C130.227 17.3018 130.227 17.16 130.227 17.0182V16.8764C130.227 16.7345 130.227 16.7345 130.227 16.5927V16.4509C130.227 16.3091 130.227 16.3091 130.227 16.1673V16.0255C130.227 16.0255 130.227 16.0255 130.37 15.8836C130.514 15.7418 130.657 15.6 130.945 15.3164C131.519 14.8909 132.381 14.1818 133.53 13.7564C134.105 13.4727 134.823 13.3309 135.541 13.0473C135.829 12.9055 136.26 12.9055 136.691 12.9055C136.834 12.9055 137.122 12.9055 137.265 12.9055H137.552H137.84C138.702 12.9055 139.564 13.0473 140.425 13.1891C141.287 13.3309 142.149 13.6145 143.155 13.8982C144.017 14.1818 145.022 14.4655 145.884 14.7491C146.746 15.0327 147.751 15.1745 148.613 15.3164C149.475 15.4582 150.481 15.4582 151.343 15.4582C152.061 15.4582 152.635 15.3164 153.21 15.1745V15.6L142.436 51.0545C140.282 51.3382 139.994 51.6218 139.994 51.6218C141.431 51.6218 141.575 52.1891 142.436 53.3236C143.586 54.8836 144.735 55.4509 148.182 55.4509C149.762 55.4509 153.497 55.4509 153.497 55.4509C153.497 55.4509 157.232 55.4509 158.812 55.4509C162.26 55.4509 163.409 54.8836 164.558 53.3236C165.42 52.3309 165.42 51.6218 167 51.6218C167 52.0473 166.713 51.7636 164.558 51.48ZM112.989 51.48C110.978 51.1964 107.818 51.0545 102.79 51.0545H102.215C97.1878 51.0545 94.0276 51.1964 92.0166 51.48L102.215 18.0109L102.503 17.0182L102.79 18.0109L112.989 51.48ZM153.785 51.0545H153.21C148.182 51.0545 145.022 51.1964 143.011 51.48L153.21 18.0109L153.497 17.0182L153.785 18.0109L163.983 51.48C161.972 51.1964 158.812 51.0545 153.785 51.0545Z" fill="white"/>
</svg>
