<svg width="30" height="24" viewBox="0 0 30 24" fill="none" xmlns="http://www.w3.org/2000/svg">
<path fill-rule="evenodd" clip-rule="evenodd" d="M1.32214 2.25C1.32214 1.42157 1.99372 0.75 2.82214 0.75H27.3878C28.2162 0.75 28.8878 1.42157 28.8878 2.25V21.75C28.8878 22.5784 28.2162 23.25 27.3878 23.25H2.82214C1.99372 23.25 1.32214 22.5784 1.32214 21.75V2.25Z" stroke="#6B6B6B" stroke-width="1.5" stroke-linecap="round" stroke-linejoin="round"/>
<path d="M6.83533 17.25L11.0768 12.634C11.3963 12.286 11.8853 12.0683 12.4168 12.0374C12.9483 12.0065 13.47 12.1654 13.8468 12.473L15.105 13.5L19.148 9.1C19.4951 8.72229 20.0397 8.5 20.6182 8.5C21.1966 8.5 21.7413 8.72229 22.0883 9.1L25.3595 12.66" stroke="#6B6B6B" stroke-width="1.5" stroke-linecap="round" stroke-linejoin="round"/>
<path fill-rule="evenodd" clip-rule="evenodd" d="M8.21352 8.25C9.4822 8.25 10.5107 7.41053 10.5107 6.375C10.5107 5.33947 9.4822 4.5 8.21352 4.5C6.94485 4.5 5.91638 5.33947 5.91638 6.375C5.91638 7.41053 6.94485 8.25 8.21352 8.25Z" stroke="#6B6B6B" stroke-width="1.5" stroke-linecap="round" stroke-linejoin="round"/>
<path d="M1.32214 17.25H28.8878" stroke="#6B6B6B" stroke-width="1.5" stroke-linecap="round" stroke-linejoin="round"/>
</svg>
