<svg width="24" height="32" viewBox="0 0 24 32" fill="none" xmlns="http://www.w3.org/2000/svg">
<path d="M7.76774 13.3599C7.68486 13.2554 7.58193 13.1686 7.46499 13.1045C7.34806 13.0404 7.2195 13.0004 7.08686 12.9867C6.95422 12.973 6.82018 12.986 6.69264 13.0249C6.5651 13.0638 6.44663 13.1279 6.34419 13.2132C6.24175 13.2986 6.15743 13.4036 6.09616 13.522C6.0349 13.6404 5.99794 13.7699 5.98747 13.9029C5.97699 14.0358 5.9932 14.1695 6.03515 14.2961C6.0771 14.4226 6.14394 14.5395 6.23174 14.6399L10.6977 19.9999L6.23174 25.3599C6.06947 25.5644 5.99362 25.8242 6.02037 26.0839C6.04712 26.3436 6.17437 26.5825 6.37492 26.7497C6.57547 26.9168 6.83343 26.9989 7.09368 26.9784C7.35393 26.9578 7.59585 26.8364 7.76774 26.6399L11.9997 21.5619L16.2317 26.6419C16.4017 26.8456 16.6457 26.9734 16.9099 26.9972C17.0408 27.009 17.1727 26.9949 17.298 26.9557C17.4234 26.9165 17.5399 26.8531 17.6407 26.7689C17.7416 26.6847 17.8249 26.5815 17.8858 26.4651C17.9468 26.3488 17.9843 26.2215 17.9961 26.0907C18.0078 25.9598 17.9938 25.828 17.9546 25.7026C17.9154 25.5772 17.8519 25.4607 17.7677 25.3599L13.3017 19.9999L17.7677 14.6399C17.93 14.4354 18.0059 14.1755 17.9791 13.9158C17.9524 13.6562 17.8251 13.4172 17.6246 13.2501C17.424 13.083 17.166 13.0009 16.9058 13.0214C16.6455 13.0419 16.4036 13.1634 16.2317 13.3599L11.9997 18.4379L7.76774 13.3579V13.3599Z" fill="#6B6B6B"/>
<path d="M24 28V9L15 0H4C2.93913 0 1.92172 0.421427 1.17157 1.17157C0.421427 1.92172 0 2.93913 0 4V28C0 29.0609 0.421427 30.0783 1.17157 30.8284C1.92172 31.5786 2.93913 32 4 32H20C21.0609 32 22.0783 31.5786 22.8284 30.8284C23.5786 30.0783 24 29.0609 24 28ZM15 6C15 6.79565 15.3161 7.55871 15.8787 8.12132C16.4413 8.68393 17.2044 9 18 9H22V28C22 28.5304 21.7893 29.0391 21.4142 29.4142C21.0391 29.7893 20.5304 30 20 30H4C3.46957 30 2.96086 29.7893 2.58579 29.4142C2.21071 29.0391 2 28.5304 2 28V4C2 3.46957 2.21071 2.96086 2.58579 2.58579C2.96086 2.21071 3.46957 2 4 2H15V6Z" fill="#6B6B6B"/>
</svg>
